<svg height="512" viewBox="0 0 512 512" width="512" xmlns="http://www.w3.org/2000/svg"><g id="Flat"><path d="m280 176v32a80.00365 80.00365 0 0 1 -80 80h-80v-46a82.03221 82.03221 0 0 1 82-82h62a15.99548 15.99548 0 0 1 16 16z" fill="#349966"/><path d="m256 200v8a87.9862 87.9862 0 0 1 -88 88h-80v-16h80a72.04746 72.04746 0 0 0 72-72v-8z" fill="#008051"/><path d="m200 274v14h-80v-46a81.68451 81.68451 0 0 1 23.05005-56.98 98.12146 98.12146 0 0 1 56.94995 88.98z" fill="#008051"/><path d="m200 274v15.98a87.697 87.697 0 0 1 -32 6.02h-80v-16h80a71.42419 71.42419 0 0 0 31.98-7.51c.02.5.02 1.01.02 1.51z" fill="#017a4a"/><path d="m184 274v110h-32v-64h-48a80.00365 80.00365 0 0 1 -80-80v-32a15.99548 15.99548 0 0 1 16-16h62a81.99656 81.99656 0 0 1 82 82z" fill="#349966"/><path d="m152 328h-16a88.09957 88.09957 0 0 1 -88-88v-8h16v8a72.08124 72.08124 0 0 0 72 72h16z" fill="#008051"/><path d="m408 312-40.32007 86.3999a79.98994 79.98994 0 0 1 -45.85986 41.6001h-60.98c-.09009-.3501-.18018-.71-.25-1.07007l-6.72-33.55981a80.0598 80.0598 0 0 1 8.98979-55.38012l49.14014-85.99z" fill="#c4d4e0"/><path d="m327.02 363.83-41.55 76.17h-18.22l45.73-83.83z" fill="#a6b2bc"/><path d="m408 160-82.01263 156.56956a14.342 14.342 0 0 0 4.7491 18.58808 14.342 14.342 0 0 0 20.66013-5.27849l80.6034-153.87915z" fill="#a6b2bc"/><path d="m382.17119 244.93051h.00006a30.37134 30.37134 0 0 0 38.86775-13.82313l59.72985-114.02971a30.37133 30.37133 0 0 0 -14.94-42.00818h-.00006a30.37134 30.37134 0 0 0 -38.86779 13.82313l-59.72984 114.02971a30.37133 30.37133 0 0 0 14.94003 42.00818z" fill="#966342"/><path d="m216 392v32h-160a23.99994 23.99994 0 0 1 41.09009-16.8501 23.98869 23.98869 0 0 1 34.68991-28.0498 23.973 23.973 0 0 1 40.22-.3501 23.99255 23.99255 0 0 1 44 13.25z" fill="#ad7d4d"/><g fill="#966342"><path d="m120 424h-16a23.9156 23.9156 0 0 0 -6.90991-16.8501 23.95682 23.95682 0 0 1 1.74-18.43994 40.04094 40.04094 0 0 1 21.16991 35.29004z"/><path d="m160 400h-16a24.00957 24.00957 0 0 0 -12.22-20.8999 24.05785 24.05785 0 0 1 13.44-10.1301 39.91806 39.91806 0 0 1 14.78 31.03z"/><path d="m32 416h184v16h-184z"/><path d="m216 392v.8a40.13252 40.13252 0 0 0 -31.19995 31.2h-16.22a56.11 56.11 0 0 1 42.54-46.5 23.92218 23.92218 0 0 1 4.87995 14.5z"/></g><path d="m408 440h-223.19995a40.57075 40.57075 0 0 1 -.8-8 40.01042 40.01042 0 0 1 76.76-15.78 23.1138 23.1138 0 0 1 3.23995-.22 23.93273 23.93273 0 0 1 18.30005 8.48 31.9895 31.9895 0 0 1 43.3999 0 23.9826 23.9826 0 0 1 38.30005 2.27 23.99289 23.99289 0 0 1 44 13.25z" fill="#ad7d4d"/><path d="m311.39014 416.85986a31.81154 31.81154 0 0 1 14.30986 7.62014 23.88959 23.88959 0 0 0 -5.7 15.52h-16a39.697 39.697 0 0 1 7.39014-23.14014z" fill="#966342"/><path d="m384 440h-16a23.83587 23.83587 0 0 0 -4-13.25 23.96169 23.96169 0 0 1 12.78-9.64014 39.7345 39.7345 0 0 1 7.22 22.89014z" fill="#966342"/><path d="m260.76 416.22a24.03856 24.03856 0 0 0 -20.76 23.78h-16a40.06591 40.06591 0 0 1 26.73-37.74 39.94548 39.94548 0 0 1 10.03 13.96z" fill="#966342"/><path d="m160 432h312v16h-312z" fill="#966342"/></g></svg>