<svg id="Capa_1" enable-background="new 0 0 497 497" height="512" viewBox="0 0 497 497" width="512" xmlns="http://www.w3.org/2000/svg"><g><g><g><path d="m418.647 114.164c-.975-25.614 21.377-48.379 31.728-57.508 2.986-2.634 7.372-2.801 10.549-.402 11.015 8.315 35.034 29.314 36.009 54.929 1.267 33.281-15.619 50.72-37.237 51.544-21.618.823-39.782-15.282-41.049-48.563z" fill="#f3d69e"/></g></g><g><g><path d="m313.465 165.166c29.786 1.065 54.268 28.937 63.967 41.722 2.798 3.688 2.616 8.789-.439 12.268-10.587 12.06-36.997 38.113-66.783 37.048-38.702-1.384-57.477-22.46-56.579-47.6.9-25.14 21.132-44.822 59.834-43.438z" fill="#efcb83"/></g></g><g><g><path d="m204.223 275.845c0 29.805-26.98 55.268-39.41 65.417-3.586 2.928-8.69 2.928-12.275 0-12.43-10.149-39.41-35.612-39.41-65.417 0-38.727 20.393-58.243 45.548-58.243s45.547 19.516 45.547 58.243z" fill="#f3d69e"/></g></g><g><g><path d="m482.379 292.869c15.958 25.173 6.804 61.124 1.74 76.351-1.461 4.393-5.771 7.125-10.368 6.572-15.933-1.917-52.352-8.977-68.311-34.15-20.735-32.708-13.961-60.11 7.285-73.578 21.247-13.468 48.919-7.903 69.654 24.805z" fill="#f3d69e"/></g></g><g><g><path d="m367.98 83.1c-16.731 15.576-45.124 13.738-57.318 12.064-3.518-.483-6.185-3.348-6.415-6.891-.799-12.282-.605-40.733 16.126-56.31 21.739-20.238 43.352-18.99 56.498-4.869 13.147 14.121 12.849 35.767-8.891 56.006z" fill="#f3d69e"/></g></g><path d="m376.872 27.094c-9.598-10.31-23.711-13.745-39.089-6.979 3.336 1.739 6.393 4.083 9.089 6.979 13.146 14.121 12.848 35.768-8.892 56.006-7.569 7.046-17.523 10.522-27.286 12.068 12.21 1.672 40.569 3.495 57.286-12.068 21.74-20.239 22.038-41.885 8.892-56.006z" fill="#efcb83"/><g><g><path d="m273.738 389.72c-10.625-23.327 1.413-52.872 7.523-65.247 1.763-3.57 5.757-5.389 9.607-4.376 13.347 3.512 43.539 13.822 54.164 37.148 13.806 30.309 4.803 52.853-14.884 61.821-19.686 8.968-42.604.963-56.41-29.346z" fill="#dbb56a"/></g></g><g><g><path d="m220.15 410.883c16.211 15.022 16.462 42.528 15.717 54.405-.215 3.426-2.787 6.202-6.187 6.676-11.785 1.646-39.231 3.487-55.442-11.535-21.063-19.518-21.4-40.445-8.722-54.127 12.679-13.682 33.571-14.937 54.634 4.581z" fill="#dbb56a"/></g></g><g><g><path d="m434.915 493.253c-20.668 7.829-45.41-4.192-55.713-10.146-2.972-1.717-4.313-5.257-3.224-8.512 3.773-11.285 14.342-36.682 35.01-44.51 26.854-10.172 45.743-1.157 52.351 16.286 6.607 17.443-1.57 36.71-28.424 46.882z" fill="#f3d69e"/></g></g><g><g><path d="m69.603 40.383c2.571 21.951-15.102 43.03-23.381 51.577-2.388 2.466-6.147 2.906-9.04 1.059-10.03-6.402-32.097-22.826-34.668-44.777-3.341-28.521 9.994-44.653 28.52-46.824 18.526-2.17 35.228 10.444 38.569 38.965z" fill="#f5deb2"/></g></g><g><g><path d="m106.164 419.582c-2.425 25.518-27.596 45.122-39.064 52.8-3.308 2.215-7.678 1.8-10.51-.999-9.816-9.701-30.843-33.696-28.418-59.213 3.151-33.156 22.198-48.205 43.735-46.158 21.537 2.046 37.408 20.414 34.257 53.57z" fill="#dbb56a"/></g></g><g><g><path d="m71.522 231.826c-21.281 14.288-52.395 7.231-65.6 3.221-3.81-1.157-6.256-4.801-5.885-8.765 1.288-13.741 6.534-45.21 27.815-59.499 27.651-18.565 51.362-13.36 63.421 4.601s7.9 41.878-19.751 60.442z" fill="#dbb56a"/></g></g><g><g><path d="m138.424 71.454c12.245-24.814 45.167-34.928 59.685-38.271 4.188-.964 8.437 1.132 10.22 5.043 6.179 13.556 18.18 45.838 5.935 70.652-15.91 32.241-40.905 40.111-61.848 29.777-20.942-10.334-29.902-34.96-13.992-67.201z" fill="#dbb56a"/></g></g><g><g><path d="m496.933 111.183c-.975-25.614-24.994-46.613-36.009-54.928-3.178-2.399-7.564-2.232-10.549.401-2.43 2.144-5.524 5.046-8.82 8.553 11.344 10.631 24.657 27.038 25.378 45.974.985 25.869-9.001 42.162-23.648 48.524 5.049 2.227 10.603 3.24 16.411 3.02 21.618-.823 38.504-18.263 37.237-51.544z" fill="#efcb83"/></g></g><g><g><path d="m377.432 206.888c-9.699-12.785-34.181-40.657-63.967-41.722-7.325-.262-13.985.234-19.981 1.375 25.183 5.898 45.361 29.028 53.948 40.347 2.798 3.688 2.616 8.788-.439 12.268-8.757 9.975-28.344 29.51-51.71 35.367 4.598.906 9.564 1.489 14.926 1.68 29.786 1.065 56.196-24.988 66.783-37.047 3.056-3.48 3.238-8.58.44-12.268z" fill="#edc472"/></g></g><g><g><path d="m158.676 217.602c-5.257 0-10.301.865-15 2.566 17.783 6.442 30.548 25.044 30.548 55.677 0 23.853-17.275 44.915-30.548 57.582 3.313 3.161 6.38 5.808 8.862 7.836 3.586 2.928 8.69 2.928 12.275 0 12.43-10.149 39.41-35.612 39.41-65.417 0-38.727-20.392-58.244-45.547-58.244z" fill="#efcb83"/></g></g><g><g><path d="m482.379 292.87c-18.29-28.852-41.976-36.574-61.89-28.752 11.232 4.319 22.303 13.629 31.889 28.752 15.958 25.173 6.804 61.124 1.74 76.351-.309.929-.751 1.777-1.291 2.542 8.218 2.205 15.682 3.4 20.923 4.03 4.596.553 8.907-2.179 10.368-6.572 5.065-15.228 14.219-51.178-1.739-76.351z" fill="#efcb83"/></g></g><g><g><path d="m346.171 357.548c-10.711-23.516-41.148-33.909-54.603-37.449-3.882-1.021-7.908.813-9.685 4.411-.361.731-.744 1.527-1.141 2.373 13.393 5.943 28.329 15.613 35.186 30.665 13.918 30.554 4.842 53.281-15.005 62.321-.091.042-.184.077-.275.118 9.957 4.639 20.64 4.382 30.518-.118 19.848-9.039 28.923-31.766 15.005-62.321z" fill="#cba863"/></g></g><g><g><path d="m220.15 410.883c-16.916-15.675-33.718-17.943-46.248-11.145 5.311 2.413 10.773 6.071 16.248 11.145 16.211 15.021 16.462 42.528 15.717 54.404-.21 3.355-2.687 6.072-5.982 6.63 11.694 1.948 23.199.968 29.796.047 3.4-.475 5.972-3.25 6.187-6.677.744-11.876.493-39.382-15.718-54.404z" fill="#cba863"/></g></g><g><g><path d="m463.338 446.371c-6.185-16.328-23.132-25.268-47.298-18.003 8.232 3.326 14.156 9.708 17.298 18.003 6.607 17.443-1.569 36.71-28.424 46.882-.301.114-.605.21-.907.315 9.848 2.6 20.857 3.492 30.907-.315 26.855-10.172 35.032-29.439 28.424-46.882z" fill="#efcb83"/></g></g><g><g><path d="m69.603 40.383c-3.341-28.52-20.043-41.135-38.569-38.965-4.063.476-7.876 1.625-11.319 3.427 10.096 5.499 17.744 17.239 19.888 35.538 1.913 16.329-7.376 32.171-15.668 42.735 4.982 4.351 9.818 7.712 13.247 9.901 2.893 1.847 6.652 1.406 9.04-1.059 8.279-8.547 25.952-29.626 23.381-51.577z" fill="#f3d69e"/></g></g><g><g><path d="m71.907 366.011c-6.526-.621-12.82.34-18.516 2.888 15.359 6.61 25.33 23.776 22.773 50.683-1.75 18.408-15.335 33.737-27.075 43.733 2.787 3.259 5.402 5.993 7.502 8.068 2.832 2.798 7.201 3.214 10.51.999 11.468-7.678 36.639-27.282 39.064-52.8 3.15-33.156-12.721-51.524-34.258-53.571z" fill="#cba863"/></g></g><g><g><path d="m91.221 170.828c-9.513-14.169-25.184-20.003-45.358-13.101 6.535 2.748 10.986 6.951 15.115 13.101 12.157 18.107 7.964 42.217-19.911 60.932-5.581 3.747-11.833 6.028-18.263 7.295 14.931 2.342 33.986 2.453 48.506-7.295 27.875-18.716 32.068-42.825 19.911-60.932z" fill="#cba863"/></g></g><g><g><path d="m208.359 38.402c-1.797-3.942-6.08-6.056-10.302-5.084-4.913 1.131-11.92 3.037-19.525 6.009 6.329 14.158 17.644 45.826 5.567 70.299-8.073 16.36-18.467 25.332-29.492 30.035 20.548 8.541 44.353 1.137 59.735-30.035 12.344-25.015.246-57.558-5.983-71.224z" fill="#cba863"/></g></g></g></svg>